<svg width="480" height="480" viewBox="0 0 480 480" fill="none" xmlns="http://www.w3.org/2000/svg">
<rect width="480" height="480" fill="#F5F5F5"/>
<rect width="480" height="480" fill="black"/>
<path d="M461.757 280.235C465.535 287.776 467.424 302.859 467.424 325.483C467.424 347.689 463.646 366.542 456.09 382.044C449.222 394.194 434.625 411.163 412.302 432.949C389.978 454.316 373.493 465 362.846 465C343.957 465 322.32 453.059 297.936 429.178C273.552 404.878 258.097 378.273 251.572 349.365L308.754 301.602C314.249 321.294 323.007 339.309 335.028 355.649C347.048 371.989 355.462 380.159 360.271 380.159C365.422 380.159 370.745 378.273 376.241 374.503C382.079 370.313 386.544 366.123 389.635 361.934C394.099 355.23 396.332 344.756 396.332 330.511C396.332 316.266 393.584 307.468 388.089 304.116C381.22 296.994 367.826 287.567 347.907 275.836C328.331 264.105 310.128 251.535 293.3 238.128C276.471 224.302 265.653 210.895 260.844 197.907C256.38 184.919 254.147 168.161 254.147 147.631C254.147 126.683 257.925 108.458 265.481 92.9558C272.35 80.8057 286.946 64.0469 309.27 42.6795C331.593 20.8932 348.078 10 358.725 10C377.614 10 399.251 22.1501 423.635 46.4503C448.02 70.3315 463.474 96.7265 470 125.635L412.817 174.026C407.322 154.335 398.564 136.319 386.544 119.979C374.523 103.221 365.937 94.8411 360.786 94.8411C355.978 94.8411 350.654 96.7265 344.816 100.497C338.977 104.268 334.169 109.086 330.391 114.952C326.957 120.398 325.24 130.035 325.24 143.861C325.24 157.268 328.674 166.275 335.543 170.884C341.038 176.75 353.573 185.967 373.15 198.536C423.292 232.053 452.828 259.286 461.757 280.235Z" fill="white"/>
<path d="M144.305 17.5413H215.398V267.037C215.398 319.408 211.963 352.926 205.094 367.59C198.226 382.253 183.458 402.155 160.791 427.293C138.467 452.431 120.951 465 108.244 465C95.8803 465 79.7386 455.992 59.819 437.976C39.8995 419.961 24.9598 398.803 15 374.503L72.1829 325.483C72.5263 325.902 73.9001 328.416 76.3042 333.025C79.0517 337.214 81.4558 340.985 83.5164 344.337C85.5771 347.27 88.1529 350.621 91.2439 354.392C97.7692 363.19 103.264 367.59 107.729 367.59C112.537 367.59 117.861 364.238 123.699 357.534C129.538 350.412 134.346 343.08 138.124 335.538C142.245 327.997 144.305 305.163 144.305 267.037V17.5413Z" fill="white"/>
</svg>
